<svg xmlns="http://www.w3.org/2000/svg" width="100%" height="100%" viewBox="0 0 500 500" version="1.1" xml:space="preserve" id="svg40" fill-rule="evenodd" clip-rule="evenodd" stroke-linejoin="round" stroke-miterlimit="1.414"><path id="PDLogo" fill="none" d="M0 0h500v500H0z"/><style>@media (prefers-color-scheme:dark){.a{fill:#f0f0f0}}</style><path d="M383.458 214.043c-34.646.496-76.529 17.921-81.827 67.867-27.814-1.031-53.716-6.026-83.299-8.229 2.711 9.8 27.002 49.455 26.639 115.314-50.776 41.129-107.854-23.387-115.185-39.348C94.917 273.74 91.487 230.534 95.189 196.84c3.689-33.569 74.249-45.247 102.065-42.824.442-9.641-.626-29.579-.403-40.377-24.052-5.609-68.775-12.884-86.417-24.681 30.907-18.069 95.679-8.538 145.128-9.179 33.996-.441 62.476-11.016 165.132-14.249.558-.016-11.682 35.433-20.749 65.222-10.652 41.621-16.274 73.056-16.487 83.291zm-30.986-99.799c-.438 4.33-1.039 12.563-3.731 25.655-8.496 1.878-89.001 10.865-98.779 10.463.024-1.001.942-23.252.908-25.99 7.56.819 77.578-5.871 101.602-10.128z" class="a" id="path30" fill="none"/><g id="g28" transform="translate(-2.638 -.66)" stroke="#fff"><path d="M389.298 214.15c-35.92.507-79.343 18.332-84.836 69.426-28.836-1.054-55.69-6.164-86.362-8.418 2.811 10.025 27.995 50.592 27.619 117.965-52.643 42.074-111.82-23.925-119.42-40.253-36.151-77.651-39.708-121.85-35.87-156.32 3.825-34.34 76.98-46.286 105.818-43.807.459-9.863-.649-30.26-.417-41.306-24.937-5.737-71.304-13.18-89.595-25.248 32.044-18.484 99.197-8.734 150.464-9.39 35.246-.451 64.774-11.269 171.204-14.576.579-.017-12.111 36.247-21.512 66.72-11.043 42.579-16.872 74.736-17.093 85.206zM96.918 91.711c15.543 11.19 83.489 25.42 90.013 26.19-.677 7.159-.741 24.837-.715 24.96-32.653-1.202-74.583-16.941-87.783-20.173-.128-2.61-1.39-27.56-1.515-30.977zm390.74-65.178s-21.077 7.889-37.559 9.693c1.034-2.723 3.802-9.594 2.232-11.892-.494-.722-4.674-1.226-5.383-.653-6.754 5.467-6.443 14.494-6.689 14.573-38.452 12.397-65.915 18.257-138.24 17.356C172.844 54 71.082 27.321 27.519 2.414c-5.6-3.201-13.085 7.909-13.116 8.114-1.23 2.003 3.048 7.13 21.203 13.974C64.604 35.44 59.118 37.358 59.935 54.47c1.221 25.61 7.255 167.043 43.533 280.65 5.837 18.282 35.438 113.304 89.452 164.91 14.458-27.637 29.679-74.861 55.426-89.286.03 4.185.546 15.466 2.06 19.272 2.774 6.971 6.492 2.937 10.07-3.27-1.03-12.282-3.402-9.694-4.089-26.036.173-.55 34.644-27.61 45.06-28.624 3.432.564 1.645-18.425-1.147-19.61-5.834-2.48-31.393 22.691-45.403 31.993-7.962-36.426-2.63-78.88-1.705-86.015 59.925 1.614 161.698 1.225 168.186 5.671-.31-18.42.914-17.244-.23-33.698-14.648 10.03-71.868 16.567-105.283 14.2-.687-17.131 11.9-48.463 74.385-57.03 8.132-1.113 62.71-1.463 74.042-.562 3.632.29 6.775-22.614 4.118-22.54-12.245.337-37.192 5.409-47.493 5.409-21.17-58.946 8.16-129 17.969-150.085.454-.978 30.67-16.154 45.089-16.154.914-8.565 3.683-17.131 3.683-17.131z" id="path38" fill-rule="nonzero" stroke-width="1.03"/><path d="M361.606 104.323c-22.641 6.902-95.214 11.43-120.34 13.758.431 7.934 1.88 24.801-.589 33.492-.419 1.474-2.354 2.865-4.783 8.52-.023 3.781 6.856 8.076 9.713 6.464 8.172-4.608 16.497-10.26 34.616-11.438 11.597-.755 59.132-6.484 74.881-7.659.661-.05 4.525-31.908 6.502-43.137zm-9.134 9.921c-.438 4.33-1.039 12.563-3.731 25.655-8.496 1.878-89.001 10.865-98.779 10.463.024-1.001.942-23.252.908-25.99 7.56.819 77.578-5.871 101.602-10.128z" id="path36"/></g></svg>