<?xml version="1.0" encoding="UTF-8" standalone="no"?>
<svg
   xmlns:dc="http://purl.org/dc/elements/1.1/"
   xmlns:cc="http://creativecommons.org/ns#"
   xmlns:rdf="http://www.w3.org/1999/02/22-rdf-syntax-ns#"
   xmlns:svg="http://www.w3.org/2000/svg"
   xmlns="http://www.w3.org/2000/svg"
   xmlns:sodipodi="http://sodipodi.sourceforge.net/DTD/sodipodi-0.dtd"
   xmlns:inkscape="http://www.inkscape.org/namespaces/inkscape"
   width="100%"
   height="100%"
   viewBox="0 0 500 500"
   version="1.1"
   xml:space="preserve"
   style="fill-rule:evenodd;clip-rule:evenodd;stroke-linejoin:round;stroke-miterlimit:1.41421;"
   id="svg40"
   sodipodi:docname="icon.svg"
   inkscape:version="1.0.2 (e86c870879, 2021-01-15, custom)"><metadata
     id="metadata46"><rdf:RDF><cc:Work
         rdf:about=""><dc:format>image/svg+xml</dc:format><dc:type
           rdf:resource="http://purl.org/dc/dcmitype/StillImage" /><dc:title /></cc:Work></rdf:RDF></metadata><defs
     id="defs44" /><sodipodi:namedview
     pagecolor="#ffffff"
     bordercolor="#666666"
     borderopacity="1"
     objecttolerance="10"
     gridtolerance="10"
     guidetolerance="10"
     inkscape:pageopacity="0"
     inkscape:pageshadow="2"
     inkscape:window-width="1680"
     inkscape:window-height="997"
     id="namedview42"
     showgrid="false"
     inkscape:snap-nodes="false"
     inkscape:zoom="1.5160369"
     inkscape:cx="152.2693"
     inkscape:cy="266.22479"
     inkscape:window-x="1358"
     inkscape:window-y="-8"
     inkscape:window-maximized="1"
     inkscape:current-layer="svg40"
     inkscape:document-rotation="0" /><rect
     id="PDLogo"
     x="0"
     y="0"
     width="500"
     height="500"
     style="fill:none;" />
    <style>
    @media (prefers-color-scheme: dark) {
        .a { fill: #f0f0f0 }
        }
    </style>
     <path
     d="M383.458,214.043c-34.646,0.496 -76.529,17.921 -81.827,67.867c-27.814,-1.031 -53.716,-6.026 -83.299,-8.229c2.711,9.8 27.002,49.455 26.639,115.314c-50.776,41.129 -107.854,-23.387 -115.185,-39.348c-34.869,-75.907 -38.299,-119.113 -34.597,-152.807c3.689,-33.569 74.249,-45.247 102.065,-42.824c0.442,-9.641 -0.626,-29.579 -0.403,-40.377c-24.052,-5.609 -68.775,-12.884 -86.417,-24.681c30.907,-18.069 95.679,-8.538 145.128,-9.179c33.996,-0.441 62.476,-11.016 165.132,-14.249c0.558,-0.016 -11.682,35.433 -20.749,65.222c-10.652,41.621 -16.274,73.056 -16.487,83.291Zm-30.986,-99.799c-0.438,4.33 -1.039,12.563 -3.731,25.655c-8.496,1.878 -89.001,10.865 -98.779,10.463c0.024,-1.001 0.942,-23.252 0.908,-25.99c7.56,0.819 77.578,-5.871 101.602,-10.128Z"
     class="a"
     style="fill:none"
     id="path30" /><g
     id="g28"
     transform="translate(-2.6384582,-0.65961455)">
     <path
       d="m 389.29798,214.14934 c -35.9199,0.5074 -79.34291,18.33292 -84.83572,69.42696 -28.8367,-1.05469 -55.6911,-6.1645 -86.36184,-8.41814 2.81068,10.02526 27.99484,50.59176 27.6185,117.96457 C 193.07592,435.1971 133.8992,369.19816 126.29865,352.87029 90.147538,275.21852 86.591419,231.0194 90.429539,196.55092 94.254181,162.2103 167.40862,150.26388 196.24739,152.74257 c 0.45826,-9.8626 -0.64902,-30.25889 -0.41781,-41.30509 -24.93638,-5.73793 -71.30381,-13.180147 -89.59449,-25.248309 32.04343,-18.484328 99.19705,-8.734252 150.46425,-9.389986 35.24601,-0.451136 64.77319,-11.26921 171.20379,-14.576523 0.57851,-0.01637 -12.11155,36.247452 -21.51193,66.721178 -11.04366,42.57769 -16.87239,74.73524 -17.09322,85.2055 z M 96.917642,91.71227 c 15.543238,11.18942 83.488958,25.42018 90.013348,26.19048 -0.67702,7.15783 -0.74129,24.83605 -0.71537,24.95881 C 153.56257,141.65954 111.63251,125.92092 98.433398,122.6893 98.304838,120.07967 97.04309,95.129043 96.917642,91.71227 Z M 487.65836,26.53376 c 0,0 -21.07752,7.889265 -37.55904,9.692789 1.03365,-2.722164 3.80183,-9.593559 2.23217,-11.891185 -0.49455,-0.722228 -4.6748,-1.226561 -5.38395,-0.653688 -6.75352,5.466835 -6.44249,14.494685 -6.6882,14.573454 C 401.80661,50.651671 374.34363,56.512355 302.01859,55.611106 172.84441,54.000926 71.082388,27.322482 27.519416,2.4148262 21.919825,-0.78609602 14.434351,10.323528 14.403247,10.529149 c -1.229607,2.003006 3.048103,7.13021 21.20297,13.973984 28.997399,10.935718 23.511853,12.854839 24.328828,29.967343 1.221313,25.609424 7.25531,167.042304 43.532905,280.648964 5.83701,18.28281 35.43782,113.30487 89.45245,164.91041 14.45775,-27.63698 29.67857,-74.86107 55.42569,-89.28619 0.0301,4.18504 0.54637,15.46652 2.06006,19.27202 2.77336,6.97165 6.49224,2.937 10.07014,-3.26945 -1.02952,-12.28197 -3.40267,-9.69382 -4.08902,-26.03602 0.17314,-0.54934 34.64364,-27.60935 45.05903,-28.62415 3.43274,0.56365 1.64536,-18.425 -1.14667,-19.61064 -5.8339,-2.4787 -31.39234,22.69186 -45.4022,31.99387 -7.96238,-36.42647 -2.63027,-78.88038 -1.70548,-86.0157 59.92526,1.61427 161.69764,1.22553 168.18575,5.67143 -0.30999,-18.41988 0.91443,-17.24447 -0.22913,-33.69817 -14.64851,10.03037 -71.86884,16.56725 -105.28392,14.20006 -0.68634,-17.13091 11.90108,-48.46292 74.38508,-57.0294 8.13243,-1.11301 62.71003,-1.4639 74.04193,-0.56265 3.63283,0.28951 6.77528,-22.61411 4.11804,-22.54047 -12.24424,0.3376 -37.19203,5.40956 -47.49232,5.40956 -21.1698,-58.94546 8.15937,-128.999524 17.96824,-150.085304 0.45411,-0.977974 30.66971,-16.153968 45.0891,-16.153968 0.91443,-8.564436 3.68364,-17.130918 3.68364,-17.130918 z"
       style="fill-rule:nonzero;stroke:#ffffff;stroke-width:1.02985"
       id="path38" />
       <path
       d="m 361.606,104.323 c -22.641,6.902 -95.214,11.43 -120.34,13.758 0.431,7.934 1.88,24.801 -0.589,33.492 -0.419,1.474 -2.354,2.865 -4.783,8.52 -0.023,3.781 6.856,8.076 9.713,6.464 8.172,-4.608 16.497,-10.26 34.616,-11.438 11.597,-0.755 59.132,-6.484 74.881,-7.659 0.661,-0.05 4.525,-31.908 6.502,-43.137 z m -9.134,9.921 c -0.438,4.33 -1.039,12.563 -3.731,25.655 -8.496,1.878 -89.001,10.865 -98.779,10.463 0.024,-1.001 0.942,-23.252 0.908,-25.99 7.56,0.819 77.578,-5.871 101.602,-10.128 z"
       id="path36"
       style="stroke:#ffffff" /></g></svg>
